<svg width="19" height="19" viewBox="0 0 19 19" fill="none" xmlns="http://www.w3.org/2000/svg">
<path d="M19 9.5573C18.9992 4.4726 15.0424 0.278485 9.99592 0.0132214C4.94945 -0.252042 0.579855 3.50441 0.0525261 8.56134C-0.474803 13.6183 3.02473 18.2055 8.01601 19V12.3203H5.60428V9.5573H8.01601V7.45142C8.01601 5.0558 9.43443 3.73253 11.6039 3.73253C12.3164 3.74247 13.0272 3.80477 13.7307 3.91892V6.27153H12.5325C12.1189 6.21626 11.7028 6.35325 11.4017 6.64381C11.1006 6.93437 10.9471 7.34697 10.9847 7.76506V9.5573H13.6196L13.1981 12.3203H10.9847V19C15.6013 18.2651 19.0007 14.2603 19 9.5573Z" fill="#F64B4B"/>
</svg>
